<svg xmlns="http://www.w3.org/2000/svg" width="256" height="256" xml:space="preserve"><path fill="#E0E0E0" d="M186.2 157c0 11.2-6.6 20.3-17.1 23.7-2.7.9-5.6 1.3-8.5 1.3H138v51.2H6.8v-75.5c0-24.5 19.9-44.5 44.5-44.5h64.3c6.7 0 12.8 4.2 15.2 10.4l.1.2.1.2 9.9 21.5 9.7-3.7-8-26.9c-.4-1.4-.6-2.8-.6-4.3 0-5.9 3.6-10.9 9.5-13.2 1.8-.7 3.7-1.1 5.6-1.1l.3.8h5c.4.1.8.3 1.2.5 3.4 1.5 6.1 4.2 7.4 7.6.1.3.2.6.3.8l13 39.9v.2c1.2 3.7 1.9 7.3 1.9 10.9z"/><path fill="#4A555F" d="M85.2 109.6c-23.7 0-43.1-19.3-43.1-43.1s19.3-43.1 43.1-43.1 43.1 19.3 43.1 43.1-19.3 43.1-43.1 43.1zm0-83c-22 0-39.9 17.9-39.9 39.9s17.9 39.9 39.9 39.9 39.9-17.9 39.9-39.9-17.8-39.9-39.9-39.9z"/><path fill="#FFD552" d="M85.2 102.7C65.3 102.7 49 86.5 49 66.5s16.2-36.2 36.2-36.2c19.9 0 36.2 16.2 36.2 36.2s-16.2 36.2-36.2 36.2z"/><path fill="#4A555F" d="M24.5 186.1h3.1v47.1h-3.1zM144.7 233.2h-3.1v-47.6h19c3.3 0 6.5-.5 9.6-1.5 12.1-3.9 19.6-14.3 19.6-27.2 0-4-.7-8-2.2-12l-13-40c-.1-.4-.2-.7-.4-1.1-1.8-4.6-5.4-8.2-10.2-9.9l1.1-2.9c5.6 2.1 9.8 6.3 12 11.7.2.4.3.8.4 1.2l13 39.9c1.6 4.2 2.4 8.6 2.4 13 0 14.2-8.3 25.8-21.8 30.1-3.4 1.1-6.9 1.7-10.6 1.7h-15.9v44.6z"/><path fill="#4A555F" d="M3.1 233.2H0v-75.5c0-28.2 23-51.2 51.2-51.2h64.3c9.5 0 18.1 5.9 21.5 14.8l.7 1.6-1.7-5.9c-.6-2-.9-4.1-.9-6.2 0-8.7 5.3-16.2 13.8-19.5 2-.8 4-1.3 6.1-1.5l.3 3.1c-1.8.2-3.5.6-5.2 1.3-7.4 2.9-11.8 9.1-11.8 16.6 0 1.8.3 3.6.8 5.3l8 26.9-2.9 1.1-9.9-21.5c-3-7.7-10.4-12.9-18.6-12.9H51.2c-26.5 0-48.1 21.6-48.1 48.1v75.4zM211.9 96.3c-1.5 0-3-.4-4.3-1.2l-11.5-7.2c-12.5-7.8-26.8-12-41.6-12h-7.1V42.5h7.1c14.7 0 29.1-4.1 41.6-12l11.5-7.2c1.3-.8 2.8-1.2 4.3-1.2 4.5 0 8.1 3.6 8.1 8.1v58.1c0 4.4-3.6 8-8.1 8zm-61.4-23.5h4c15.3 0 30.3 4.3 43.2 12.5l11.5 7.2c.8.5 1.7.8 2.6.8 2.4 0 5-1.9 5-4.9V30.1c0-3.1-2.6-4.9-5-4.9-.9 0-1.8.3-2.6.8l-11.5 7.2c-13 8.1-27.9 12.5-43.2 12.5h-4v27.1z"/><path fill="#F68F6F" d="M147.2 74.3h1.8V44.1h-1.8c-5.4 0-9.7 4.4-9.7 9.7v10.7c-.1 5.4 4.3 9.8 9.7 9.8z"/><path fill="#4A555F" d="M150.5 75.9h-3.3c-6.2 0-11.3-5.1-11.3-11.3V53.8c0-6.2 5.1-11.3 11.3-11.3h3.3v33.4zm-3.3-30.3c-4.5 0-8.2 3.7-8.2 8.2v10.7c0 4.5 3.7 8.2 8.2 8.2h.2V45.6h-.2z"/><path fill="#4A555F" d="M166.2 98.8h-10l-9.4-26h7.8c3.5 0 6.9.2 10.3.7l1.4.2v25.1zm-7.9-3.2h4.7V76.3c-2.8-.3-5.6-.5-8.5-.5h-3.4l7.2 19.8zM256 60.8h-3.1v-3.1h3.1v3.1zm-6.2 0h-3.1v-3.1h3.1v3.1zm-6.3 0h-3.1v-3.1h3.1v3.1zm-6.2 0h-3.1v-3.1h3.1v3.1zm-6.3 0h-3.1v-3.1h3.1v3.1zM245.132 28.695l1.48 2.724-16.869 9.17-1.48-2.724zM229.81 76.509l16.87 9.17-1.48 2.723-16.87-9.17z"/><path fill="#F68F6F" d="m91 136.6 5.6 53.2-12.2 43.7L72.5 189l5.6-52.4-3.8-10.5-2.8-7.9h26l-2.8 7.9z"/><path fill="#4A555F" d="M92.2 138.1H76.9l-7.6-21.5h30.4l-7.5 21.5zm-13-3.1H90l5.4-15.3H73.8l5.4 15.3z"/><path fill="#4A555F" d="m95.1 189.9-5.5-51.8H79.5l-5.5 51-3.1-.3 5.7-53.8h15.9l5.7 54.6zM61.6 145.7l-8.5-39.5h15.8l7.1 20.2-14.4 19.3zM57 109.3l6.2 29 9.4-12.5-5.9-16.5H57zM108.1 146.8l-15-20.4 7.1-20.2h17.2l-9.3 40.6zm-11.5-20.9 10 13.6 6.9-30.1h-11l-5.9 16.5z"/><path fill="#4A555F" d="M85.9 233.9h-3L71 189.4l-17.4-81.3 1.5-1.9h60.4l1.5 1.9-18.8 82-12.3 43.8zM57 109.3l.7 3.3 16.3 76 10.4 39 10.7-38.3 18.4-80H57z"/></svg>